<svg id="Icons" height="512" viewBox="0 0 74 74" width="512" xmlns="http://www.w3.org/2000/svg"><path d="m14.04 64.983h-7.915a1 1 0 0 1 -1-1v-38.6a1 1 0 0 1 1-1h7.915a1 1 0 0 1 1 1v38.6a1 1 0 0 1 -1 1zm-6.915-2h5.915v-36.6h-5.915z"/><path d="m32.068 64.983h-7.915a1 1 0 0 1 -1-1v-25.834a1 1 0 0 1 1-1h7.915a1 1 0 0 1 1 1v25.834a1 1 0 0 1 -1 1zm-6.915-2h5.915v-23.834h-5.915z"/><path d="m50.1 64.983h-7.918a1 1 0 0 1 -1-1v-38.6a1 1 0 0 1 1-1h7.918a1 1 0 0 1 1 1v38.6a1 1 0 0 1 -1 1zm-6.915-2h5.915v-36.6h-5.918z"/><path d="m68.125 64.983h-7.915a1 1 0 0 1 -1-1v-25.834a1 1 0 0 1 1-1h7.915a1 1 0 0 1 1 1v25.834a1 1 0 0 1 -1 1zm-6.915-2h5.915v-23.834h-5.915z"/><path d="m63.625 33.517a5.5 5.5 0 1 1 5.5-5.5 5.506 5.506 0 0 1 -5.5 5.5zm0-9a3.5 3.5 0 1 0 3.5 3.5 3.5 3.5 0 0 0 -3.5-3.5z"/><path d="m46.125 20.017a5.5 5.5 0 1 1 5.5-5.5 5.506 5.506 0 0 1 -5.5 5.5zm0-9a3.5 3.5 0 1 0 3.5 3.5 3.5 3.5 0 0 0 -3.5-3.5z"/><path d="m27.875 33.517a5.5 5.5 0 1 1 5.5-5.5 5.506 5.506 0 0 1 -5.5 5.5zm0-9a3.5 3.5 0 1 0 3.5 3.5 3.5 3.5 0 0 0 -3.5-3.5z"/><path d="m10.375 20.017a5.5 5.5 0 1 1 5.5-5.5 5.506 5.506 0 0 1 -5.5 5.5zm0-9a3.5 3.5 0 1 0 3.5 3.5 3.5 3.5 0 0 0 -3.5-3.5z"/><path d="m60.125 26.187a1 1 0 0 1 -.654-.243l-9.99-8.63a1 1 0 1 1 1.308-1.514l9.99 8.63a1 1 0 0 1 -.654 1.757z"/><path d="m31.405 26.226a1 1 0 0 1 -.629-1.777l10.71-8.669a1 1 0 1 1 1.258 1.554l-10.71 8.666a1 1 0 0 1 -.629.226z"/><path d="m23.635 27.517a1 1 0 0 1 -.672-.26l-9.913-9a1 1 0 1 1 1.345-1.48l9.913 9a1 1 0 0 1 -.673 1.74z"/></svg>