<svg id="Capa_1" enable-background="new 0 0 512 512" height="512" viewBox="0 0 512 512" width="512" xmlns="http://www.w3.org/2000/svg"><g><circle cx="256" cy="241" r="7.5"/><path d="m395.461 437.555c63.713-45.256 101.539-118.207 101.539-196.555 0-64.374-25.068-124.895-70.587-170.413-45.519-45.519-106.039-70.587-170.413-70.587s-124.894 25.068-170.413 70.587c-45.519 45.518-70.587 106.039-70.587 170.413 0 78.348 37.826 151.299 101.539 196.555l-36.486 63.195c-1.34 2.32-1.34 5.18 0 7.5s3.815 3.75 6.495 3.75h34.641c2.68 0 5.155-1.43 6.495-3.75l27.808-48.164c31.596 14.545 65.373 21.914 100.508 21.914s68.912-7.369 100.509-21.914l27.808 48.164c1.34 2.32 3.815 3.75 6.495 3.75h34.641c2.68 0 5.155-1.43 6.495-3.75s1.34-5.18 0-7.5zm-365.461-196.555c0-124.617 101.383-226 226-226s226 101.383 226 226c0 72.998-35.025 140.993-94.079 183.495l-7.537-13.055c54.364-39.725 86.616-102.918 86.616-170.44 0-116.346-94.654-211-211-211s-211 94.654-211 211c0 67.522 32.252 130.715 86.616 170.439l-7.537 13.055c-59.054-42.501-94.079-110.496-94.079-183.494zm226-37.5c-20.678 0-37.5 16.822-37.5 37.5 0 5.226 1.077 10.203 3.017 14.727l-36.791 63.725c-22.168-20.086-34.726-48.223-34.726-78.452 0-58.448 47.551-106 106-106s106 47.552 106 106c0 30.229-12.558 58.366-34.725 78.451l-36.791-63.725c1.939-4.524 3.017-9.501 3.017-14.727-.001-20.677-16.823-37.499-37.501-37.499zm0 173.5c-16.439 0-32.407-2.887-47.59-8.572l7.621-13.2c12.817 4.492 26.231 6.772 39.969 6.772s27.152-2.28 39.969-6.772l7.621 13.2c-15.183 5.685-31.151 8.572-47.59 8.572zm55.183 4.58 22.699 39.316c-22.307 9.69-45.915 15.042-70.383 15.948v-45.031c16.45-.797 32.433-4.23 47.684-10.233zm-55.183-34.58c-11.079 0-21.912-1.692-32.317-5.026l32.317-55.974 32.317 55.974c-10.405 3.334-21.238 5.026-32.317 5.026zm-22.5-106c0-12.406 10.093-22.5 22.5-22.5s22.5 10.094 22.5 22.5-10.093 22.5-22.5 22.5-22.5-10.094-22.5-22.5zm143.5 0c0-66.72-54.28-121-121-121s-121 54.28-121 121c0 35.604 15.255 68.664 42.073 91.705l-7.615 13.19c-31.111-25.731-49.458-64.343-49.458-104.895 0-74.99 61.009-136 136-136s136 61.01 136 136c0 40.552-18.347 79.164-49.458 104.895l-7.615-13.19c26.818-23.041 42.073-56.101 42.073-91.705zm-202.878-126.816c-17.96 11.636-33.303 26.979-44.939 44.939l-38.996-22.514c15.641-24.755 36.666-45.78 61.42-61.421zm-9.535-46.516c25.23-13.36 53.706-21.368 83.913-22.511v45.03c-22.027 1.083-42.828 6.907-61.402 16.472zm-42.928 104.43c-9.565 18.574-15.389 39.375-16.472 61.402h-45.029c1.143-30.207 9.151-58.683 22.511-83.913zm-16.456 76.402c1.084 21.569 6.81 42.481 16.504 61.374l-39.073 22.558c-13.52-25.628-21.341-54.245-22.474-83.932zm24.01 74.361c8.783 13.622 19.769 25.88 32.656 36.179l-22.699 39.315c-19.722-14.661-36.249-32.667-49.017-52.943zm277.6-89.361c-1.083-22.027-6.907-42.828-16.472-61.402l38.991-22.511c13.36 25.23 21.368 53.706 22.511 83.913zm45.027 15c-1.133 29.687-8.954 58.304-22.475 83.932l-39.073-22.558c9.694-18.893 15.42-39.804 16.504-61.374zm-69.024-89.378c-11.636-17.96-26.979-33.303-44.939-44.939l22.514-38.996c24.755 15.641 45.78 36.666 61.42 61.421zm-57.914-52.463c-18.574-9.565-39.375-15.389-61.402-16.472v-45.03c30.207 1.143 58.683 9.151 83.913 22.511zm57.885 216.202 39.06 22.552c-12.769 20.276-29.295 38.282-49.017 52.943l-22.699-39.315c12.887-10.3 23.873-22.559 32.656-36.18zm-265.929 174.139h-17.32l131.608-227.952c3.738 3.317 8.141 5.895 12.982 7.515zm139.142-30c-32.48 0-63.711-6.727-92.967-19.977l37.784-65.443c15.252 6.002 31.234 9.436 47.683 10.233v45.044c-17.196-.651-34.169-3.542-50.558-8.619-3.957-1.228-8.158.988-9.383 4.944-1.226 3.957.988 8.158 4.945 9.384 20.205 6.26 41.232 9.434 62.496 9.434 29.802 0 58.505-6.069 85.432-18.027l7.535 13.051c-29.256 13.249-60.487 19.976-92.967 19.976zm139.142 30-127.27-220.437c4.841-1.62 9.243-4.198 12.982-7.515l131.608 227.952z"/></g></svg>